# xmcd
#
# Track frame offsets: 
#        150
#        20560
#        41107
#        61431
#        75457
#        88967
#        106701
#        135025
#        155670
#        183047
#        204470
#        227540
#        246136
#        265673
#        282138
#        300788
#        312460
#        330687
#
# Disc length: 4666 seconds
#
# Revision: 0
# Processed by: cddbd v1.5.1PL0 Copyright (c) Steve Scherf et al.
# Submitted via: ExactAudioCopy v0.95a5
#
DISCID=e1123812
DTITLE=Various Artist - Blues Planet - The Best Of Blues Music
DYEAR=2000
DGENRE=Blues
TTITLE0=Buddy Guy - She's Out There Somewhere
TTITLE1=Billy Boy Arnold - Whiskey, Beer and Reefer
TTITLE2=Otis Rush - You Got Me Running
TTITLE3=Walter Horton - Big Walter's Boogie
TTITLE4=The Duke Robillard Band - I Still Love You Baby
TTITLE5=Pinetop Perkins - Hi-Heel Sneakers
TTITLE6=Byther Smith - Play The Blues In Paris
TTITLE7=Luther Allison - Nobody But You
TTITLE8=Son Seals - Now That I'm Down
TTITLE9=Koko Taylor - Mother Nature
TTITLE10=Rick Derringer - Trouble In Paradise
TTITLE11=John Lee Hooker - Don't Look Back
TTITLE12=John Mayall - Stone Gold Deal
TTITLE13=Peter Green - You Wan't See Me Anymore
TTITLE14=Sherman Robertson - Special King Of Loving
TTITLE15=Cotton, Wells, Branch - Hit Man
TTITLE16=Omar and The Howlers - I've Tried
TTITLE17=Tinsley Ellis - Sing Of The Blues
EXTD=
EXTT0=
EXTT1=
EXTT2=
EXTT3=
EXTT4=
EXTT5=
EXTT6=
EXTT7=
EXTT8=
EXTT9=
EXTT10=
EXTT11=
EXTT12=
EXTT13=
EXTT14=
EXTT15=
EXTT16=
EXTT17=
PLAYORDER=
